<svg width="418" height="341" viewBox="0 0 418 341" fill="none" xmlns="http://www.w3.org/2000/svg">
<path d="M206.175 80.0325C209.118 78.0091 212.303 76.3553 215.649 75.0751C214.968 70.3695 216.332 65.4122 219.804 61.671C222.888 58.3615 227.225 56.4738 231.721 56.4738C235.826 56.4738 239.747 58.0106 242.763 60.7982C247.577 65.266 250.057 70.7296 250.845 76.296C251.771 76.7271 252.685 77.184 253.581 77.6782C255.274 78.6133 256.873 79.652 258.395 80.7638C260.855 80.0165 263.581 79.5304 266.544 79.5304C271.426 79.5304 276.201 80.9105 280.358 83.5187C287.953 88.2836 290.254 98.3398 285.487 105.934C283.395 109.258 280.265 111.641 276.662 112.786C276.926 115.444 276.952 118.131 276.74 120.819L350.867 155.062V84.4657C350.867 65.5581 335.54 50.2305 316.632 50.2305H161.35L206.175 80.0325Z" fill="#142965"/>
<path d="M265.264 313.857C235.853 295.356 216.804 280.313 208.447 269.009L204.741 274.048L204.412 274.01C190.137 291.418 172.829 306.719 152.802 319.618L152.006 320.13C145.498 324.343 134.589 331.401 122.587 331.401C117.659 331.401 113.061 330.242 108.917 327.954C103.684 325.059 97.0166 318.95 94.9282 306.252C92.5522 291.817 95.9639 277.612 98.7056 266.199L99.2212 264.044C101.861 252.975 105.352 241.154 109.887 227.918C111.054 224.513 112.135 221.493 113.183 218.7L113.03 218.467L115.237 213.31C100.839 211.631 78.2827 201.558 60.1172 192.374V306.745C60.1172 325.653 75.4448 340.98 94.3525 340.98H314.566C298.603 334.203 278.386 322.111 265.264 313.857Z" fill="#142965"/>
<path d="M134.274 214.325C131.901 219.865 129.835 225.547 127.88 231.25C123.989 242.601 120.467 254.089 117.683 265.764C114.99 277.058 111.719 289.343 113.639 301.002C114.21 304.464 115.479 308.317 118.748 310.122C126.558 314.435 138.316 306.417 144.555 302.399C165.047 289.202 183.333 272.709 197.789 253.126C197.828 253.073 197.865 253.018 197.904 252.964C169.546 249.683 148.688 236.331 134.274 214.325Z" fill="#FFCC00" stroke="#FFCC00" stroke-width="5.34582" stroke-miterlimit="10" stroke-linecap="round"/>
<path d="M225.274 141.334C224.36 135.477 220.674 134.587 214.694 137.808C198.656 149.975 182.619 162.141 166.581 174.308C155.773 182.508 146.84 190.411 140.074 202.439C137.91 206.286 136.012 210.269 134.274 214.325C148.688 236.331 169.546 249.683 197.904 252.964C200.25 249.78 202.497 246.515 204.633 243.168C211.657 232.163 216.698 220.787 217.981 207.746C219.7 190.285 221.523 172.855 223.664 155.479C224.174 151.339 225.912 145.422 225.274 141.334Z" fill="#142965" stroke="#142965" stroke-width="5.34582" stroke-miterlimit="10" stroke-linecap="round"/>
<path d="M208.885 101.451C216.261 88.0948 233.068 83.2466 246.424 90.6225C259.781 97.9984 264.629 114.805 257.253 128.162" fill="#142965"/>
<path d="M208.885 101.451C216.261 88.0948 233.068 83.2466 246.424 90.6225C259.781 97.9984 264.629 114.805 257.253 128.162" stroke="#142965" stroke-width="5.08453" stroke-miterlimit="10"/>
<path d="M257.792 97.8924C257.792 97.8924 265.536 90.2076 273.019 94.9049" stroke="#142965" stroke-width="2.58823" stroke-miterlimit="10" stroke-linecap="round"/>
<path d="M234.087 85.8301C234.087 85.8301 239.502 76.3586 233.025 70.3491" stroke="#142965" stroke-width="2.58823" stroke-miterlimit="10" stroke-linecap="round"/>
<path opacity="0.62" d="M224.445 130.422C224.445 130.422 284.39 172.807 296.104 195.552C307.818 218.297 364.483 309.865 352.329 312.984C340.174 316.103 240.699 269.934 230.29 251.641C219.881 233.349 204.757 197.849 204.757 197.849L224.445 130.422Z" fill="#142965"/>
<path opacity="0.62" d="M223.845 130.092C223.845 130.092 156.167 101.638 130.668 103.728C105.17 105.818 -2.51274 106.163 1.26908 118.128C5.05089 130.093 96.8497 190.092 117.88 189.25C138.91 188.408 177.037 182.466 177.037 182.466L223.845 130.092Z" fill="#142965"/>
<path opacity="0.62" d="M227.028 133.485C227.028 133.485 282.098 182.036 291.313 205.903C300.528 229.77 347.079 326.872 334.661 328.674C322.243 330.475 228.274 273.936 219.88 254.635C211.486 235.334 200.244 198.421 200.244 198.421L227.028 133.485Z" fill="#142965"/>
<path opacity="0.62" d="M231.513 135.396C231.513 135.396 167.266 99.8704 141.689 99.2223C116.113 98.5742 9.01115 87.4048 11.4921 99.7053C13.9731 112.006 98.8312 181.475 119.831 182.887C140.83 184.298 179.374 182.466 179.374 182.466L231.513 135.396Z" fill="#142965"/>
<path opacity="0.62" d="M222.225 133.18C222.225 133.18 285.738 170.003 299.449 191.603C313.16 213.204 377.828 299.306 366.003 303.505C354.179 307.705 250.955 270.665 238.944 253.383C238.756 253.113 238.567 252.839 238.376 252.561C218.619 223.747 211.423 188.138 218.161 153.858L222.225 133.18Z" fill="#41B4B8"/>
<path opacity="0.62" d="M223.551 129.996C223.551 129.996 154.116 106.151 128.815 109.949C103.514 113.746 -3.90248 121.321 0.674201 133.005C5.25088 144.689 100.871 198.389 121.797 196.136C122.124 196.101 122.455 196.064 122.79 196.026C157.502 192.069 189.116 174.17 210.595 146.617L223.551 129.996Z" fill="#41B4B8"/>
<path opacity="0.62" d="M224.098 137.862L245.831 160.622C248.681 163.607 251.794 166.304 255.156 168.696C270.078 179.315 313.674 209.914 330.616 217.175C345.649 223.617 386.658 221.117 407.703 219.297C411.632 218.957 412.721 213.73 409.268 211.823L267.469 133.517L201.608 97.1462L59.8095 18.8401C56.3568 16.9335 52.5122 20.6395 54.3176 24.1463C63.9862 42.9265 83.7118 78.9671 97.1715 88.259C112.13 98.5858 160.104 118.763 177.671 126.008C181.937 127.767 186.362 129.106 190.889 130.001L220.792 135.916" fill="#F76AA4"/>
<path opacity="0.62" d="M225.489 137.926L248.799 159.069C251.855 161.841 255.154 164.307 258.679 166.452C274.325 175.973 320.004 203.365 337.423 209.392C352.879 214.739 393.604 209.302 414.463 205.977C418.358 205.357 419.069 200.064 415.489 198.41L268.437 130.48L200.136 98.929L53.0837 30.9992C49.5031 29.3452 45.9343 33.3175 47.9866 36.6857C58.9778 54.7238 81.2386 89.2561 95.3303 97.5584C110.991 106.785 160.289 123.468 178.331 129.434C182.712 130.882 187.221 131.9 191.801 132.469L222.052 136.223" fill="#F76AA4"/>
<path opacity="0.62" d="M219.787 133.546L239.578 158.014C242.173 161.222 245.055 164.166 248.209 166.826C262.209 178.634 303.146 212.709 319.434 221.336C333.887 228.991 374.964 229.866 396.087 229.78C400.031 229.764 401.545 224.643 398.261 222.459L263.369 132.776L200.716 91.1216L65.8249 1.43864C62.5404 -0.745072 58.4044 2.63286 59.9158 6.27598C68.0099 25.7866 84.7102 63.3249 97.3616 73.6905C111.422 85.2104 157.578 109.258 174.49 117.921C178.598 120.024 182.897 121.722 187.335 122.986L216.652 131.336" fill="#F76AA4"/>
</svg>
