<svg width="98" height="24" viewBox="0 0 98 24" fill="none" xmlns="http://www.w3.org/2000/svg">
<g clip-path="url(#clip0_2884_56602)">
<path d="M25.1771 18.8387C23.1786 18.8387 21.4371 18.1056 20.0007 16.6579C18.5667 15.2125 17.8394 13.4637 17.8394 11.4622C17.8394 9.46066 18.5621 7.7142 19.987 6.26878C21.4164 4.83714 23.1602 4.11328 25.1771 4.11328C27.1756 4.11328 28.9171 4.84174 30.3511 6.28027C31.7874 7.7188 32.5148 9.46296 32.5148 11.4622C32.5148 13.4798 31.792 15.2332 30.3649 16.6694C28.9377 18.1102 27.1916 18.8387 25.1771 18.8387ZM25.1771 8.23124C24.2868 8.23124 23.5572 8.54147 22.9446 9.17801C22.325 9.81914 22.0268 10.5683 22.0268 11.4645C22.0268 12.363 22.3273 13.1144 22.9446 13.7625C23.5572 14.4082 24.2868 14.7207 25.1771 14.7207C26.065 14.7207 26.7947 14.4082 27.4096 13.7625C28.0268 13.1121 28.3274 12.3607 28.3274 11.4645C28.3274 10.5683 28.0268 9.82144 27.4096 9.18031C26.797 8.54147 26.065 8.23124 25.1771 8.23124Z" fill="#F25142"/>
<path d="M39.4053 0H34.9609V18.6342H39.4053V0Z" fill="#F25142"/>
<path d="M56.8685 18.8383C54.8356 18.8383 53.0849 18.1099 51.6669 16.6713C50.2489 15.2351 49.5308 13.491 49.5308 11.4894C49.5308 9.43733 50.2627 7.67019 51.7082 6.24086C53.1354 4.8299 54.8723 4.11523 56.8685 4.11523C58.3851 4.11523 59.771 4.55185 60.9871 5.40899C62.2008 6.26613 63.0865 7.40823 63.6211 8.7985L63.7657 9.17766L59.693 10.3519L59.5622 10.0509C59.319 9.48559 58.9519 9.026 58.4746 8.6859C57.9997 8.3458 57.4719 8.18034 56.8662 8.18034C55.9782 8.18034 55.2509 8.50206 54.6383 9.16158C54.0187 9.82799 53.7182 10.5909 53.7182 11.4894C53.7182 12.3879 54.0187 13.144 54.6383 13.8035C55.2509 14.4561 55.9805 14.7732 56.8685 14.7732C57.4903 14.7732 58.0203 14.6078 58.4884 14.27C58.9587 13.9276 59.3213 13.4749 59.5668 12.9257L59.6976 12.6292L63.768 13.8035L63.6211 14.1826C63.0865 15.5568 62.2054 16.6874 61.0031 17.5446C59.7939 18.4017 58.4035 18.8383 56.8685 18.8383Z" fill="#133A4A"/>
<path d="M72.5099 18.8383C70.5918 18.8383 68.9191 18.103 67.5332 16.653C66.152 15.2075 65.4521 13.4703 65.4521 11.4894C65.4521 9.43963 66.1474 7.67709 67.5218 6.24775C68.9007 4.8322 70.578 4.11523 72.5099 4.11523C73.7673 4.11523 74.8916 4.44844 75.8645 5.10796V4.34503H80.3088V18.6338H75.8645V17.8847C74.9031 18.5189 73.7788 18.8383 72.5099 18.8383ZM72.8679 8.20562C71.9455 8.20562 71.1929 8.52274 70.5734 9.17536C69.947 9.83488 69.6418 10.5909 69.6418 11.4871C69.6418 12.3833 69.9447 13.1348 70.5711 13.7851C71.1929 14.4308 71.9432 14.7456 72.8679 14.7456C73.7604 14.7456 74.5084 14.4262 75.1555 13.769C75.8048 13.1118 76.1191 12.3649 76.1191 11.4871C76.1191 10.6093 75.8025 9.85786 75.1532 9.19145C74.5061 8.52963 73.7581 8.20562 72.8679 8.20562Z" fill="#133A4A"/>
<path d="M85.5655 24.0002L87.8531 18.1887L82.1353 4.3457H86.8756L90.1338 12.7861L93.2267 4.3457H97.9625L90.1911 24.0002H85.5655Z" fill="#133A4A"/>
<path d="M4.45816 0.974609H0V5.43957H4.45816V0.974609Z" fill="#F25142"/>
<path d="M11.1488 6.55859V8.03849C10.1347 8.51876 9.00121 8.78992 7.8035 8.78992C6.60578 8.78992 5.47232 8.51876 4.45816 8.03849V6.55859H0V18.8389H4.46045V12.5011C5.47461 12.9814 6.60808 13.2526 7.80579 13.2526C9.00351 13.2526 10.137 12.9814 11.1511 12.5011V18.8389H15.6116V6.55859H11.1488Z" fill="#F25142"/>
<path d="M15.6071 0.974609H11.1489V5.43957H15.6071V0.974609Z" fill="#F25142"/>
<path d="M46.8809 6.55859H42.4204V18.8389H46.8809V6.55859Z" fill="#F25142"/>
<path d="M46.8786 0.974609H42.4204V5.44186H46.8786V0.974609Z" fill="#F25142"/>
</g>
<defs>
<clipPath id="clip0_2884_56602">
<rect width="98.2154" height="24" fill="white"/>
</clipPath>
</defs>
</svg>
